<svg version="1.1" id="Capa_1" xmlns="http://www.w3.org/2000/svg" x="0" y="0" viewBox="0 0 512 512" xml:space="preserve"><path d="M10.667 0h490.667C507.224 0 512 4.776 512 10.667v490.667c0 5.891-4.776 10.667-10.667 10.667H10.667C4.776 512 0 507.224 0 501.333V10.667C0 4.776 4.776 0 10.667 0z" fill="#90caf9"/><path d="M53.333 42.667h405.333c5.891 0 10.667 4.776 10.667 10.667v405.333c0 5.891-4.776 10.667-10.667 10.667H53.333c-5.891 0-10.667-4.776-10.667-10.667V53.333c.001-5.891 4.776-10.666 10.667-10.666z" fill="#283593"/><path d="M160 362.667c-5.891 0-10.667-4.776-10.667-10.667V160a10.667 10.667 0 019.237-10.667c31.211-4.267 73.707-4.629 99.136 17.621a58.582 58.582 0 0119.627 46.379 62.27 62.27 0 01-30.208 52.736 109.338 109.338 0 01-76.459 14.891V352c.001 5.891-4.775 10.667-10.666 10.667zm10.667-103.552a87.806 87.806 0 0064.768-10.859A40.532 40.532 0 00256 213.333a37.694 37.694 0 00-12.331-30.229 99.418 99.418 0 00-73.003-13.611v89.622zm171.562 104.042a63.088 63.088 0 01-40.299-14.165c-4.236-4.124-4.326-10.9-.203-15.136 4.124-4.236 10.9-4.326 15.136-.203a40.939 40.939 0 0035.819 6.4c2.496-1.067 10.112-4.267 10.112-19.989 0-14.101-7.595-18.091-26.261-24.427-16.064-5.504-37.867-12.843-37.867-39.637a39.297 39.297 0 0123.744-38.656 58.24 58.24 0 0158.261 9.579c4.283 4.047 4.474 10.8.427 15.083-4.047 4.283-10.8 4.474-15.083.427a37.418 37.418 0 00-35.157-5.483A18.494 18.494 0 00320 256c0 10.517 6.4 13.675 23.232 19.392C360.533 281.216 384 289.195 384 320c1.639 16.809-7.67 32.779-23.104 39.637a47.812 47.812 0 01-18.667 3.52z" fill="#90caf9"/></svg>